<?xml version = "1.0" standalone = "no"?>
<svg xmlns="http://www.w3.org/2000/svg" width="48" height="48" viewBox="0 0 64 64" font-family="sans-serif" xmlns:xlink="http://www.w3.org/1999/xlink"><g><ellipse fill="rgb(255,255,255)" fill-opacity="1" stroke="rgb(0,0,0)" stroke-opacity="0" stroke-width="1" cx="32" cy="32" rx="31.36" ry="31.36"/><path transform="matrix(0.8,0,0,0.8,6.4,4.4)" fill="rgb(76.5,76.5,76.5)" fill-opacity="1" stroke="rgb(0,0,0)" stroke-opacity="1" stroke-width="1" stroke-linecap="round" stroke-linejoin="round" d="M4,12 l0,10 l4,0 l0,34 l-4,0 l0,4 l56,0 l0,-4 l-4,0 l0,-34 l4,0 l0,-10 a10 3 0 0 0 -56,0 M14,22 l4,4 l4,-4 l0,34 l-8,0 Z M 28 22 l 4 4 l 4 -4 l 0 34 l -8 0 Z M 42 22 l 4 4 l 4 -4 l 0 34 l -8 0 Z"/></g></svg>
